# xmcd
#
# Track frame offsets:
#	182
#	5412
#	14047
#	23687
#	39732
#	46200
#	59620
#	67815
#	77787
#	84170
#	94855
#	98245
#	103742
#	109732
#	120380
#	134170
#	151885
#	160485
#	167432
#	171045
#	178957
#	191320
#	194612
#
# Disc length: 2808 seconds
#
# Revision: 0
# Processed by: cddbd v1.5.2PL0 Copyright (c) Steve Scherf et al.
# Submitted via: EZCDAudioConverter 1.3.4.1
#
DISCID=2f0af617
DTITLE=The Flinstones - Modern Stone-Age Melodies
DYEAR=1994
DGENRE=
TTITLE0=Meet The Flintstones [Main Title, 1965
TTITLE1=Meet The Flintstones [Original Album Version, 1961]
TTITLE2=Rockin' Bird
TTITLE3=Car Hop Song
TTITLE4=Star Dust
TTITLE5=Yabba-Dabba-Doo!
TTITLE6=Happy Anniversary Quartet
TTITLE7=Lucia
TTITLE8=Rockenschpeel Jingle
TTITLE9=Bedrock Twitch
TTITLE10=Old Folks At Home
TTITLE11=Softsoap Jingle
TTITLE12=Way Outs
TTITLE13=Surfin' Craze
TTITLE14=Open Up Your Heart And Let The Sunshine In
TTITLE15=Laugh Laugh
TTITLE16=Christmas Is My Fav'rite Time Of Year
TTITLE17=Dino The Dinosaur
TTITLE18=Meet The Flintstones [End Title, 1962]
TTITLE19=The Man Called Flintstone
TTITLE20=They'll Never Split Us Apart
TTITLE21=Rise And Shine [Main Title, 1960]
TTITLE22=Rise And Shine [End Title, 1960]
EXTD=
EXTT0=
EXTT1=
EXTT2=
EXTT3=
EXTT4=
EXTT5=
EXTT6=
EXTT7=
EXTT8=
EXTT9=
EXTT10=
EXTT11=
EXTT12=
EXTT13=
EXTT14=
EXTT15=
EXTT16=
EXTT17=
EXTT18=
EXTT19=
EXTT20=
EXTT21=
EXTT22=
PLAYORDER=
